<svg width="81" height="95" viewBox="0 0 81 95" fill="none" xmlns="http://www.w3.org/2000/svg">
<path fill-rule="evenodd" clip-rule="evenodd" d="M56.6341 3.29268C56.6341 1.47418 58.1083 0 59.9268 0H77.7073C79.5258 0 81 1.47418 81 3.29268V94.1707H56.6341V94.1707H71.108C71.108 86.4092 64.816 80.1172 57.0545 80.1172H56.6341V78.308C60.6407 77.5388 63.6679 74.0149 63.6679 69.7839C63.6679 68.712 63.4735 67.6854 63.1182 66.7375L72.0083 62.9545C72.8526 62.5952 72.8059 61.3828 71.9372 61.0871L56.6341 55.8776V3.29268ZM38.0367 61.0877L52.6829 56.1018V23.7073C52.6829 21.8888 51.2087 20.4146 49.3902 20.4146H31.6098C29.7913 20.4146 28.3171 21.8888 28.3171 23.7073V94.1707H52.6829V94.1707H38.8677C38.8677 86.4887 45.0313 80.2464 52.6829 80.1192V78.1546C49.0078 77.145 46.3077 73.7798 46.3077 69.7839C46.3077 68.7119 46.502 67.6853 46.8574 66.7375L41.0409 64.2624V73.6573C41.0409 74.4857 40.3694 75.1573 39.5409 75.1573C38.7125 75.1573 38.0409 74.4857 38.0409 73.6573V62.9858L37.9674 62.9545C37.1231 62.5952 37.168 61.3834 38.0367 61.0877ZM3.29268 52.6829C1.47418 52.6829 0 54.1571 0 55.9756V94.1707H24.3659V55.9756C24.3659 54.1571 22.8917 52.6829 21.0732 52.6829H3.29268Z" fill="#FFAF10"/>
</svg>
