<svg width="202" height="239" viewBox="0 0 202 239" fill="none" xmlns="http://www.w3.org/2000/svg">
<path d="M125 5C125 2.23858 127.239 0 130 0H157C159.761 0 162 2.23858 162 5V143H146.979C146.979 131.214 137.424 121.66 125.638 121.66H125V118.912C131.084 117.744 135.681 112.393 135.681 105.968C135.681 104.34 135.386 102.781 134.846 101.342L149.594 95.0666C150.438 94.7073 150.39 93.4945 149.521 93.1988L125 84.8511V5Z" fill="#FFAF10"/>
<path d="M95.4757 93.1998L119 85.1915V36C119 33.2386 116.761 31 114 31H87C84.2386 31 82 33.2386 82 36V143H98.0213C98.0213 131.335 107.381 121.856 119 121.663V118.679C113.419 117.146 109.319 112.036 109.319 105.968C109.319 104.34 109.614 102.781 110.154 101.342L99.766 96.9217V112.628C99.766 113.456 99.0944 114.128 98.266 114.128C97.4375 114.128 96.766 113.456 96.766 112.628V95.6451L95.4064 95.0666C94.562 94.7073 94.607 93.4955 95.4757 93.1998Z" fill="#FFAF10"/>
<path d="M44 80C41.2386 80 39 82.2386 39 85V143H76V85C76 82.2386 73.7614 80 71 80H44Z" fill="#FFAF10"/>
<path d="M19.5241 223.744C16.0935 223.744 12.7661 223.289 9.54213 222.38C6.35946 221.429 3.79679 220.21 1.85413 218.722L5.26413 211.158C7.12413 212.522 9.33546 213.617 11.8981 214.444C14.4608 215.271 17.0235 215.684 19.5861 215.684C22.4381 215.684 24.5461 215.271 25.9101 214.444C27.2741 213.576 27.9561 212.439 27.9561 211.034C27.9561 210.001 27.5428 209.153 26.7161 208.492C25.9308 207.789 24.8975 207.231 23.6161 206.818C22.3761 206.405 20.6815 205.95 18.5321 205.454C15.2255 204.669 12.5181 203.883 10.4101 203.098C8.30213 202.313 6.48346 201.052 4.95413 199.316C3.46613 197.58 2.72213 195.265 2.72213 192.372C2.72213 189.851 3.40413 187.577 4.76813 185.552C6.13213 183.485 8.17813 181.853 10.9061 180.654C13.6755 179.455 17.0441 178.856 21.0121 178.856C23.7815 178.856 26.4888 179.187 29.1341 179.848C31.7795 180.509 34.0941 181.46 36.0781 182.7L32.9781 190.326C28.9688 188.053 24.9595 186.916 20.9501 186.916C18.1395 186.916 16.0521 187.371 14.6881 188.28C13.3655 189.189 12.7041 190.388 12.7041 191.876C12.7041 193.364 13.4688 194.48 14.9981 195.224C16.5688 195.927 18.9455 196.629 22.1281 197.332C25.4348 198.117 28.1421 198.903 30.2501 199.688C32.3581 200.473 34.1561 201.713 35.6441 203.408C37.1735 205.103 37.9381 207.397 37.9381 210.29C37.9381 212.77 37.2355 215.043 35.8301 217.11C34.4661 219.135 32.3995 220.747 29.6301 221.946C26.8608 223.145 23.4921 223.744 19.5241 223.744ZM47.2812 179.6H57.3252V223H47.2812V179.6ZM84.365 223.744C80.9343 223.744 77.607 223.289 74.383 222.38C71.2003 221.429 68.6377 220.21 66.695 218.722L70.105 211.158C71.965 212.522 74.1763 213.617 76.739 214.444C79.3017 215.271 81.8643 215.684 84.427 215.684C87.279 215.684 89.387 215.271 90.751 214.444C92.115 213.576 92.797 212.439 92.797 211.034C92.797 210.001 92.3837 209.153 91.557 208.492C90.7717 207.789 89.7383 207.231 88.457 206.818C87.217 206.405 85.5223 205.95 83.373 205.454C80.0663 204.669 77.359 203.883 75.251 203.098C73.143 202.313 71.3243 201.052 69.795 199.316C68.307 197.58 67.563 195.265 67.563 192.372C67.563 189.851 68.245 187.577 69.609 185.552C70.973 183.485 73.019 181.853 75.747 180.654C78.5163 179.455 81.885 178.856 85.853 178.856C88.6223 178.856 91.3297 179.187 93.975 179.848C96.6203 180.509 98.935 181.46 100.919 182.7L97.819 190.326C93.8097 188.053 89.8003 186.916 85.791 186.916C82.9803 186.916 80.893 187.371 79.529 188.28C78.2063 189.189 77.545 190.388 77.545 191.876C77.545 193.364 78.3097 194.48 79.839 195.224C81.4097 195.927 83.7863 196.629 86.969 197.332C90.2757 198.117 92.983 198.903 95.091 199.688C97.199 200.473 98.997 201.713 100.485 203.408C102.014 205.103 102.779 207.397 102.779 210.29C102.779 212.77 102.076 215.043 100.671 217.11C99.307 219.135 97.2403 220.747 94.471 221.946C91.7017 223.145 88.333 223.744 84.365 223.744ZM127.932 205.95L122.104 212.026V223H112.122V179.6H122.104V199.874L141.324 179.6H152.484L134.504 198.944L153.538 223H141.82L127.932 205.95ZM187.141 213.7H166.991L163.147 223H152.855L172.199 179.6H182.119L201.525 223H190.985L187.141 213.7ZM183.979 206.074L177.097 189.458L170.215 206.074H183.979Z" fill="white"/>
</svg>
