<svg width="370" height="66" viewBox="0 0 370 66" fill="none" xmlns="http://www.w3.org/2000/svg">
<path d="M35.6585 9.06294C35.6585 7.92361 36.5867 7 37.7317 7H48.9268C50.0718 7 51 7.92361 51 9.06294V66H44.7717C44.7717 61.1372 40.8101 57.1952 35.9232 57.1952H35.6585V56.0617C38.1812 55.5797 40.0872 53.3719 40.0872 50.7211C40.0872 50.0495 39.9648 49.4063 39.7411 48.8125L45.8559 46.2233C46.206 46.075 46.1861 45.5746 45.8259 45.4526L35.6585 42.0085V9.06294Z" fill="#FFAF10"/>
<path d="M23.4168 45.453L33.1707 42.1489V21.8531C33.1707 20.7138 32.2425 19.7902 31.0976 19.7902H19.9024C18.7575 19.7902 17.8293 20.7138 17.8293 21.8531V66H24.4722C24.4722 61.1871 28.353 57.2761 33.1707 57.1964V55.9655C30.8567 55.333 29.1567 53.2246 29.1567 50.7211C29.1567 50.0495 29.2791 49.4063 29.5028 48.8125L25.1956 46.9887V53.4688C25.1956 53.8106 24.9172 54.0876 24.5737 54.0876C24.2302 54.0876 23.9517 53.8106 23.9517 53.4688V46.462L23.388 46.2233C23.0379 46.075 23.0566 45.5751 23.4168 45.453Z" fill="#FFAF10"/>
<path d="M2.07317 40.007C0.92819 40.007 0 40.9306 0 42.0699V66H15.3415V42.0699C15.3415 40.9306 14.4133 40.007 13.2683 40.007H2.07317Z" fill="#FFAF10"/>
<path d="M85.3696 37.456C83.267 37.456 81.2276 37.1773 79.2516 36.62C77.301 36.0373 75.7303 35.29 74.5396 34.378L76.6296 29.742C77.7696 30.578 79.125 31.2493 80.6956 31.756C82.2663 32.2627 83.837 32.516 85.4076 32.516C87.1556 32.516 88.4476 32.2627 89.2836 31.756C90.1196 31.224 90.5376 30.5273 90.5376 29.666C90.5376 29.0327 90.2843 28.5133 89.7776 28.108C89.2963 27.6773 88.663 27.3353 87.8776 27.082C87.1176 26.8287 86.079 26.55 84.7616 26.246C82.735 25.7647 81.0756 25.2833 79.7836 24.802C78.4916 24.3207 77.377 23.548 76.4396 22.484C75.5276 21.42 75.0716 20.0013 75.0716 18.228C75.0716 16.6827 75.4896 15.2893 76.3256 14.048C77.1616 12.7813 78.4156 11.7807 80.0876 11.046C81.785 10.3113 83.8496 9.944 86.2816 9.944C87.979 9.944 89.6383 10.1467 91.2596 10.552C92.881 10.9573 94.2996 11.54 95.5156 12.3L93.6156 16.974C91.1583 15.5807 88.701 14.884 86.2436 14.884C84.521 14.884 83.2416 15.1627 82.4056 15.72C81.595 16.2773 81.1896 17.012 81.1896 17.924C81.1896 18.836 81.6583 19.52 82.5956 19.976C83.5583 20.4067 85.015 20.8373 86.9656 21.268C88.9923 21.7493 90.6516 22.2307 91.9436 22.712C93.2356 23.1933 94.3376 23.9533 95.2496 24.992C96.187 26.0307 96.6556 27.4367 96.6556 29.21C96.6556 30.73 96.225 32.1233 95.3636 33.39C94.5276 34.6313 93.261 35.6193 91.5636 36.354C89.8663 37.0887 87.8016 37.456 85.3696 37.456ZM102.382 10.4H108.538V37H102.382V10.4ZM125.111 37.456C123.008 37.456 120.969 37.1773 118.993 36.62C117.042 36.0373 115.471 35.29 114.281 34.378L116.371 29.742C117.511 30.578 118.866 31.2493 120.437 31.756C122.007 32.2627 123.578 32.516 125.149 32.516C126.897 32.516 128.189 32.2627 129.025 31.756C129.861 31.224 130.279 30.5273 130.279 29.666C130.279 29.0327 130.025 28.5133 129.519 28.108C129.037 27.6773 128.404 27.3353 127.619 27.082C126.859 26.8287 125.82 26.55 124.503 26.246C122.476 25.7647 120.817 25.2833 119.525 24.802C118.233 24.3207 117.118 23.548 116.181 22.484C115.269 21.42 114.813 20.0013 114.813 18.228C114.813 16.6827 115.231 15.2893 116.067 14.048C116.903 12.7813 118.157 11.7807 119.829 11.046C121.526 10.3113 123.591 9.944 126.023 9.944C127.72 9.944 129.379 10.1467 131.001 10.552C132.622 10.9573 134.041 11.54 135.257 12.3L133.357 16.974C130.899 15.5807 128.442 14.884 125.985 14.884C124.262 14.884 122.983 15.1627 122.147 15.72C121.336 16.2773 120.931 17.012 120.931 17.924C120.931 18.836 121.399 19.52 122.337 19.976C123.299 20.4067 124.756 20.8373 126.707 21.268C128.733 21.7493 130.393 22.2307 131.685 22.712C132.977 23.1933 134.079 23.9533 134.991 24.992C135.928 26.0307 136.397 27.4367 136.397 29.21C136.397 30.73 135.966 32.1233 135.105 33.39C134.269 34.6313 133.002 35.6193 131.305 36.354C129.607 37.0887 127.543 37.456 125.111 37.456ZM151.813 26.55L148.241 30.274V37H142.123V10.4H148.241V22.826L160.021 10.4H166.861L155.841 22.256L167.507 37H160.325L151.813 26.55ZM188.103 31.3H175.753L173.397 37H167.089L178.945 10.4H185.025L196.919 37H190.459L188.103 31.3ZM186.165 26.626L181.947 16.442L177.729 26.626H186.165Z" fill="#585858"/>
<path d="M78.1088 62.16C77.2448 62.16 76.4075 62.0373 75.5968 61.792C74.7968 61.5467 74.1621 61.2213 73.6928 60.816L74.4128 59.2C74.8715 59.5627 75.4315 59.8613 76.0928 60.096C76.7648 60.32 77.4368 60.432 78.1088 60.432C78.9408 60.432 79.5595 60.2987 79.9648 60.032C80.3808 59.7653 80.5888 59.4133 80.5888 58.976C80.5888 58.656 80.4715 58.3947 80.2368 58.192C80.0128 57.9787 79.7248 57.8133 79.3728 57.696C79.0208 57.5787 78.5408 57.4453 77.9328 57.296C77.0795 57.0933 76.3861 56.8907 75.8528 56.688C75.3301 56.4853 74.8768 56.1707 74.4928 55.744C74.1195 55.3067 73.9328 54.72 73.9328 53.984C73.9328 53.3653 74.0981 52.8053 74.4288 52.304C74.7701 51.792 75.2768 51.3867 75.9488 51.088C76.6315 50.7893 77.4635 50.64 78.4448 50.64C79.1275 50.64 79.7995 50.7253 80.4608 50.896C81.1221 51.0667 81.6928 51.312 82.1728 51.632L81.5168 53.248C81.0261 52.96 80.5141 52.7413 79.9808 52.592C79.4475 52.4427 78.9301 52.368 78.4288 52.368C77.6075 52.368 76.9941 52.5067 76.5888 52.784C76.1941 53.0613 75.9968 53.4293 75.9968 53.888C75.9968 54.208 76.1088 54.4693 76.3328 54.672C76.5675 54.8747 76.8608 55.0347 77.2128 55.152C77.5648 55.2693 78.0448 55.4027 78.6528 55.552C79.4848 55.744 80.1675 55.9467 80.7008 56.16C81.2341 56.3627 81.6875 56.6773 82.0608 57.104C82.4448 57.5307 82.6368 58.1067 82.6368 58.832C82.6368 59.4507 82.4661 60.0107 82.1248 60.512C81.7941 61.0133 81.2875 61.4133 80.6048 61.712C79.9221 62.0107 79.0901 62.16 78.1088 62.16ZM84.5073 53.456H86.5073V62H84.5073V53.456ZM85.5153 52.048C85.1526 52.048 84.8486 51.936 84.6033 51.712C84.358 51.4773 84.2353 51.1893 84.2353 50.848C84.2353 50.5067 84.358 50.224 84.6033 50C84.8486 49.7653 85.1526 49.648 85.5153 49.648C85.878 49.648 86.182 49.76 86.4273 49.984C86.6726 50.1973 86.7953 50.4693 86.7953 50.8C86.7953 51.152 86.6726 51.4507 86.4273 51.696C86.1926 51.9307 85.8886 52.048 85.5153 52.048ZM91.7723 62.112C91.079 62.112 90.4016 62.0213 89.7403 61.84C89.079 61.6587 88.551 61.4293 88.1563 61.152L88.9243 59.632C89.3083 59.888 89.767 60.096 90.3003 60.256C90.8443 60.4053 91.3776 60.48 91.9003 60.48C93.095 60.48 93.6923 60.1653 93.6923 59.536C93.6923 59.2373 93.5376 59.0293 93.2283 58.912C92.9296 58.7947 92.4443 58.6827 91.7723 58.576C91.0683 58.4693 90.4923 58.3467 90.0443 58.208C89.607 58.0693 89.223 57.8293 88.8923 57.488C88.5723 57.136 88.4123 56.6507 88.4123 56.032C88.4123 55.2213 88.7483 54.576 89.4203 54.096C90.103 53.6053 91.0203 53.36 92.1723 53.36C92.759 53.36 93.3456 53.4293 93.9323 53.568C94.519 53.696 94.999 53.872 95.3723 54.096L94.6043 55.616C93.879 55.1893 93.063 54.976 92.1563 54.976C91.5696 54.976 91.1216 55.0667 90.8123 55.248C90.5136 55.4187 90.3643 55.648 90.3643 55.936C90.3643 56.256 90.5243 56.4853 90.8443 56.624C91.175 56.752 91.6816 56.8747 92.3643 56.992C93.047 57.0987 93.607 57.2213 94.0443 57.36C94.4816 57.4987 94.855 57.7333 95.1643 58.064C95.4843 58.3947 95.6443 58.864 95.6443 59.472C95.6443 60.272 95.2976 60.912 94.6043 61.392C93.911 61.872 92.967 62.112 91.7723 62.112ZM102.503 61.536C102.268 61.728 101.98 61.872 101.639 61.968C101.308 62.064 100.956 62.112 100.583 62.112C99.644 62.112 98.9187 61.8667 98.4067 61.376C97.8947 60.8853 97.6387 60.1707 97.6387 59.232V55.12H96.2307V53.52H97.6387V51.568H99.6387V53.52H101.927V55.12H99.6387V59.184C99.6387 59.6 99.74 59.92 99.9427 60.144C100.145 60.3573 100.439 60.464 100.823 60.464C101.271 60.464 101.644 60.3467 101.943 60.112L102.503 61.536ZM111.899 57.776C111.899 57.9147 111.888 58.112 111.867 58.368H105.163C105.28 58.9973 105.584 59.4987 106.075 59.872C106.576 60.2347 107.195 60.416 107.931 60.416C108.869 60.416 109.643 60.1067 110.251 59.488L111.323 60.72C110.939 61.1787 110.453 61.5253 109.867 61.76C109.28 61.9947 108.619 62.112 107.883 62.112C106.944 62.112 106.117 61.9253 105.403 61.552C104.688 61.1787 104.133 60.6613 103.739 60C103.355 59.328 103.163 58.5707 103.163 57.728C103.163 56.896 103.349 56.1493 103.723 55.488C104.107 54.816 104.635 54.2933 105.307 53.92C105.979 53.5467 106.736 53.36 107.579 53.36C108.411 53.36 109.152 53.5467 109.803 53.92C110.464 54.2827 110.976 54.8 111.339 55.472C111.712 56.1333 111.899 56.9013 111.899 57.776ZM107.579 54.96C106.939 54.96 106.395 55.152 105.947 55.536C105.509 55.9093 105.243 56.4107 105.147 57.04H109.995C109.909 56.4213 109.648 55.92 109.211 55.536C108.773 55.152 108.229 54.96 107.579 54.96ZM124.604 53.36C125.681 53.36 126.534 53.6747 127.164 54.304C127.793 54.9227 128.108 55.856 128.108 57.104V62H126.108V57.36C126.108 56.6133 125.942 56.0533 125.612 55.68C125.281 55.296 124.806 55.104 124.188 55.104C123.516 55.104 122.977 55.328 122.572 55.776C122.166 56.2133 121.964 56.8427 121.964 57.664V62H119.964V57.36C119.964 56.6133 119.798 56.0533 119.468 55.68C119.137 55.296 118.662 55.104 118.044 55.104C117.361 55.104 116.817 55.3227 116.412 55.76C116.017 56.1973 115.82 56.832 115.82 57.664V62H113.82V53.456H115.724V54.544C116.044 54.16 116.444 53.8667 116.924 53.664C117.404 53.4613 117.937 53.36 118.524 53.36C119.164 53.36 119.729 53.4827 120.22 53.728C120.721 53.9627 121.116 54.3147 121.404 54.784C121.756 54.336 122.209 53.9893 122.764 53.744C123.318 53.488 123.932 53.36 124.604 53.36ZM135.277 50.8H137.357V62H135.277V50.8ZM145.043 53.36C146.12 53.36 146.984 53.6747 147.635 54.304C148.285 54.9333 148.611 55.8667 148.611 57.104V62H146.611V57.36C146.611 56.6133 146.435 56.0533 146.083 55.68C145.731 55.296 145.229 55.104 144.579 55.104C143.843 55.104 143.261 55.328 142.835 55.776C142.408 56.2133 142.195 56.848 142.195 57.68V62H140.195V53.456H142.099V54.56C142.429 54.1653 142.845 53.8667 143.347 53.664C143.848 53.4613 144.413 53.36 145.043 53.36ZM154.62 51.632C153.777 51.632 153.356 52.0907 153.356 53.008V53.52H155.708V55.12H153.42V62H151.42V55.12H150.012V53.52H151.42V52.976C151.42 52.0587 151.687 51.3387 152.22 50.816C152.753 50.2827 153.505 50.016 154.476 50.016C155.244 50.016 155.847 50.1707 156.284 50.48L155.724 51.984C155.383 51.7493 155.015 51.632 154.62 51.632ZM160.769 62.112C159.905 62.112 159.127 61.9253 158.433 61.552C157.74 61.1787 157.196 60.6613 156.801 60C156.417 59.328 156.225 58.5707 156.225 57.728C156.225 56.8853 156.417 56.1333 156.801 55.472C157.196 54.8107 157.74 54.2933 158.433 53.92C159.127 53.5467 159.905 53.36 160.769 53.36C161.644 53.36 162.428 53.5467 163.121 53.92C163.815 54.2933 164.353 54.8107 164.737 55.472C165.132 56.1333 165.329 56.8853 165.329 57.728C165.329 58.5707 165.132 59.328 164.737 60C164.353 60.6613 163.815 61.1787 163.121 61.552C162.428 61.9253 161.644 62.112 160.769 62.112ZM160.769 60.4C161.505 60.4 162.113 60.1547 162.593 59.664C163.073 59.1733 163.313 58.528 163.313 57.728C163.313 56.928 163.073 56.2827 162.593 55.792C162.113 55.3013 161.505 55.056 160.769 55.056C160.033 55.056 159.425 55.3013 158.945 55.792C158.476 56.2827 158.241 56.928 158.241 57.728C158.241 58.528 158.476 59.1733 158.945 59.664C159.425 60.1547 160.033 60.4 160.769 60.4ZM169.146 54.704C169.722 53.808 170.735 53.36 172.186 53.36V55.264C172.015 55.232 171.86 55.216 171.722 55.216C170.943 55.216 170.335 55.4453 169.898 55.904C169.46 56.352 169.242 57.0027 169.242 57.856V62H167.242V53.456H169.146V54.704ZM184.666 53.36C185.744 53.36 186.597 53.6747 187.226 54.304C187.856 54.9227 188.17 55.856 188.17 57.104V62H186.17V57.36C186.17 56.6133 186.005 56.0533 185.674 55.68C185.344 55.296 184.869 55.104 184.25 55.104C183.578 55.104 183.04 55.328 182.634 55.776C182.229 56.2133 182.026 56.8427 182.026 57.664V62H180.026V57.36C180.026 56.6133 179.861 56.0533 179.53 55.68C179.2 55.296 178.725 55.104 178.106 55.104C177.424 55.104 176.88 55.3227 176.474 55.76C176.08 56.1973 175.882 56.832 175.882 57.664V62H173.882V53.456H175.786V54.544C176.106 54.16 176.506 53.8667 176.986 53.664C177.466 53.4613 178 53.36 178.586 53.36C179.226 53.36 179.792 53.4827 180.282 53.728C180.784 53.9627 181.178 54.3147 181.466 54.784C181.818 54.336 182.272 53.9893 182.826 53.744C183.381 53.488 183.994 53.36 184.666 53.36ZM193.99 53.36C195.249 53.36 196.209 53.664 196.87 54.272C197.542 54.8693 197.878 55.776 197.878 56.992V62H195.99V60.96C195.745 61.3333 195.393 61.6213 194.934 61.824C194.486 62.016 193.942 62.112 193.302 62.112C192.662 62.112 192.102 62.0053 191.622 61.792C191.142 61.568 190.769 61.264 190.502 60.88C190.246 60.4853 190.118 60.0427 190.118 59.552C190.118 58.784 190.401 58.1707 190.966 57.712C191.542 57.2427 192.443 57.008 193.67 57.008H195.878V56.88C195.878 56.2827 195.697 55.824 195.334 55.504C194.982 55.184 194.454 55.024 193.75 55.024C193.27 55.024 192.795 55.0987 192.326 55.248C191.867 55.3973 191.478 55.6053 191.158 55.872L190.374 54.416C190.822 54.0747 191.361 53.8133 191.99 53.632C192.619 53.4507 193.286 53.36 193.99 53.36ZM193.718 60.656C194.219 60.656 194.662 60.544 195.046 60.32C195.441 60.0853 195.718 59.7547 195.878 59.328V58.336H193.814C192.662 58.336 192.086 58.7147 192.086 59.472C192.086 59.8347 192.23 60.1227 192.518 60.336C192.806 60.5493 193.206 60.656 193.718 60.656ZM203.085 62.112C202.391 62.112 201.714 62.0213 201.053 61.84C200.391 61.6587 199.863 61.4293 199.469 61.152L200.237 59.632C200.621 59.888 201.079 60.096 201.613 60.256C202.157 60.4053 202.69 60.48 203.213 60.48C204.407 60.48 205.005 60.1653 205.005 59.536C205.005 59.2373 204.85 59.0293 204.541 58.912C204.242 58.7947 203.757 58.6827 203.085 58.576C202.381 58.4693 201.805 58.3467 201.357 58.208C200.919 58.0693 200.535 57.8293 200.205 57.488C199.885 57.136 199.725 56.6507 199.725 56.032C199.725 55.2213 200.061 54.576 200.733 54.096C201.415 53.6053 202.333 53.36 203.485 53.36C204.071 53.36 204.658 53.4293 205.245 53.568C205.831 53.696 206.311 53.872 206.685 54.096L205.917 55.616C205.191 55.1893 204.375 54.976 203.469 54.976C202.882 54.976 202.434 55.0667 202.125 55.248C201.826 55.4187 201.677 55.648 201.677 55.936C201.677 56.256 201.837 56.4853 202.157 56.624C202.487 56.752 202.994 56.8747 203.677 56.992C204.359 57.0987 204.919 57.2213 205.357 57.36C205.794 57.4987 206.167 57.7333 206.477 58.064C206.797 58.3947 206.957 58.864 206.957 59.472C206.957 60.272 206.61 60.912 205.917 61.392C205.223 61.872 204.279 62.112 203.085 62.112ZM208.679 53.456H210.679V62H208.679V53.456ZM209.687 52.048C209.325 52.048 209.021 51.936 208.775 51.712C208.53 51.4773 208.407 51.1893 208.407 50.848C208.407 50.5067 208.53 50.224 208.775 50C209.021 49.7653 209.325 49.648 209.687 49.648C210.05 49.648 210.354 49.76 210.599 49.984C210.845 50.1973 210.967 50.4693 210.967 50.8C210.967 51.152 210.845 51.4507 210.599 51.696C210.365 51.9307 210.061 52.048 209.687 52.048ZM221.774 57.312L219.998 59.136V62H217.918V50.8H219.998V56.544L225.534 50.8H227.87L223.166 55.808L228.158 62H225.726L221.774 57.312ZM229.226 53.456H231.226V62H229.226V53.456ZM230.234 52.048C229.871 52.048 229.567 51.936 229.322 51.712C229.077 51.4773 228.954 51.1893 228.954 50.848C228.954 50.5067 229.077 50.224 229.322 50C229.567 49.7653 229.871 49.648 230.234 49.648C230.597 49.648 230.901 49.76 231.146 49.984C231.391 50.1973 231.514 50.4693 231.514 50.8C231.514 51.152 231.391 51.4507 231.146 51.696C230.911 51.9307 230.607 52.048 230.234 52.048ZM238.699 53.36C239.776 53.36 240.64 53.6747 241.291 54.304C241.942 54.9333 242.267 55.8667 242.267 57.104V62H240.267V57.36C240.267 56.6133 240.091 56.0533 239.739 55.68C239.387 55.296 238.886 55.104 238.235 55.104C237.499 55.104 236.918 55.328 236.491 55.776C236.064 56.2133 235.851 56.848 235.851 57.68V62H233.851V53.456H235.755V54.56C236.086 54.1653 236.502 53.8667 237.003 53.664C237.504 53.4613 238.07 53.36 238.699 53.36ZM252.914 57.776C252.914 57.9147 252.904 58.112 252.882 58.368H246.178C246.296 58.9973 246.6 59.4987 247.09 59.872C247.592 60.2347 248.21 60.416 248.946 60.416C249.885 60.416 250.658 60.1067 251.266 59.488L252.338 60.72C251.954 61.1787 251.469 61.5253 250.882 61.76C250.296 61.9947 249.634 62.112 248.898 62.112C247.96 62.112 247.133 61.9253 246.418 61.552C245.704 61.1787 245.149 60.6613 244.754 60C244.37 59.328 244.178 58.5707 244.178 57.728C244.178 56.896 244.365 56.1493 244.738 55.488C245.122 54.816 245.65 54.2933 246.322 53.92C246.994 53.5467 247.752 53.36 248.594 53.36C249.426 53.36 250.168 53.5467 250.818 53.92C251.48 54.2827 251.992 54.8 252.354 55.472C252.728 56.1333 252.914 56.9013 252.914 57.776ZM248.594 54.96C247.954 54.96 247.41 55.152 246.962 55.536C246.525 55.9093 246.258 56.4107 246.162 57.04H251.01C250.925 56.4213 250.664 55.92 250.226 55.536C249.789 55.152 249.245 54.96 248.594 54.96ZM256.739 54.704C257.315 53.808 258.329 53.36 259.779 53.36V55.264C259.609 55.232 259.454 55.216 259.315 55.216C258.537 55.216 257.929 55.4453 257.491 55.904C257.054 56.352 256.835 57.0027 256.835 57.856V62H254.835V53.456H256.739V54.704ZM260.674 65.216C259.832 65.216 259.192 65.0507 258.754 64.72L259.33 63.232C259.629 63.456 260.018 63.568 260.498 63.568C260.872 63.568 261.154 63.4507 261.346 63.216C261.549 62.992 261.65 62.656 261.65 62.208V53.456H263.65V62.16C263.65 63.1093 263.389 63.856 262.866 64.4C262.344 64.944 261.613 65.216 260.674 65.216ZM262.642 52.048C262.28 52.048 261.976 51.936 261.73 51.712C261.485 51.4773 261.362 51.1893 261.362 50.848C261.362 50.5067 261.485 50.224 261.73 50C261.976 49.7653 262.28 49.648 262.642 49.648C263.005 49.648 263.309 49.76 263.554 49.984C263.8 50.1973 263.922 50.4693 263.922 50.8C263.922 51.152 263.8 51.4507 263.554 51.696C263.32 51.9307 263.016 52.048 262.642 52.048ZM269.537 53.36C270.796 53.36 271.756 53.664 272.417 54.272C273.089 54.8693 273.425 55.776 273.425 56.992V62H271.537V60.96C271.292 61.3333 270.94 61.6213 270.481 61.824C270.033 62.016 269.489 62.112 268.849 62.112C268.209 62.112 267.649 62.0053 267.169 61.792C266.689 61.568 266.316 61.264 266.049 60.88C265.793 60.4853 265.665 60.0427 265.665 59.552C265.665 58.784 265.948 58.1707 266.513 57.712C267.089 57.2427 267.99 57.008 269.217 57.008H271.425V56.88C271.425 56.2827 271.244 55.824 270.881 55.504C270.529 55.184 270.001 55.024 269.297 55.024C268.817 55.024 268.342 55.0987 267.873 55.248C267.414 55.3973 267.025 55.6053 266.705 55.872L265.921 54.416C266.369 54.0747 266.908 53.8133 267.537 53.632C268.166 53.4507 268.833 53.36 269.537 53.36ZM269.265 60.656C269.766 60.656 270.209 60.544 270.593 60.32C270.988 60.0853 271.265 59.7547 271.425 59.328V58.336H269.361C268.209 58.336 267.633 58.7147 267.633 59.472C267.633 59.8347 267.777 60.1227 268.065 60.336C268.353 60.5493 268.753 60.656 269.265 60.656ZM290.894 62L290.878 54.576L287.198 60.72H286.27L282.59 54.672V62H280.606V50.8H282.318L286.766 58.224L291.134 50.8H292.846L292.862 62H290.894ZM298.959 53.36C300.217 53.36 301.177 53.664 301.839 54.272C302.511 54.8693 302.847 55.776 302.847 56.992V62H300.959V60.96C300.713 61.3333 300.361 61.6213 299.903 61.824C299.455 62.016 298.911 62.112 298.271 62.112C297.631 62.112 297.071 62.0053 296.591 61.792C296.111 61.568 295.737 61.264 295.471 60.88C295.215 60.4853 295.087 60.0427 295.087 59.552C295.087 58.784 295.369 58.1707 295.935 57.712C296.511 57.2427 297.412 57.008 298.639 57.008H300.847V56.88C300.847 56.2827 300.665 55.824 300.303 55.504C299.951 55.184 299.423 55.024 298.719 55.024C298.239 55.024 297.764 55.0987 297.295 55.248C296.836 55.3973 296.447 55.6053 296.127 55.872L295.343 54.416C295.791 54.0747 296.329 53.8133 296.959 53.632C297.588 53.4507 298.255 53.36 298.959 53.36ZM298.687 60.656C299.188 60.656 299.631 60.544 300.015 60.32C300.409 60.0853 300.687 59.7547 300.847 59.328V58.336H298.783C297.631 58.336 297.055 58.7147 297.055 59.472C297.055 59.8347 297.199 60.1227 297.487 60.336C297.775 60.5493 298.175 60.656 298.687 60.656ZM310.262 53.36C311.339 53.36 312.203 53.6747 312.854 54.304C313.504 54.9333 313.83 55.8667 313.83 57.104V62H311.83V57.36C311.83 56.6133 311.654 56.0533 311.302 55.68C310.95 55.296 310.448 55.104 309.798 55.104C309.062 55.104 308.48 55.328 308.054 55.776C307.627 56.2133 307.414 56.848 307.414 57.68V62H305.414V50.128H307.414V54.448C307.744 54.096 308.15 53.8293 308.63 53.648C309.12 53.456 309.664 53.36 310.262 53.36ZM319.631 53.36C320.889 53.36 321.849 53.664 322.511 54.272C323.183 54.8693 323.519 55.776 323.519 56.992V62H321.631V60.96C321.385 61.3333 321.033 61.6213 320.575 61.824C320.127 62.016 319.583 62.112 318.943 62.112C318.303 62.112 317.743 62.0053 317.263 61.792C316.783 61.568 316.409 61.264 316.143 60.88C315.887 60.4853 315.759 60.0427 315.759 59.552C315.759 58.784 316.041 58.1707 316.607 57.712C317.183 57.2427 318.084 57.008 319.311 57.008H321.519V56.88C321.519 56.2827 321.337 55.824 320.975 55.504C320.623 55.184 320.095 55.024 319.391 55.024C318.911 55.024 318.436 55.0987 317.967 55.248C317.508 55.3973 317.119 55.6053 316.799 55.872L316.015 54.416C316.463 54.0747 317.001 53.8133 317.631 53.632C318.26 53.4507 318.927 53.36 319.631 53.36ZM319.359 60.656C319.86 60.656 320.303 60.544 320.687 60.32C321.081 60.0853 321.359 59.7547 321.519 59.328V58.336H319.455C318.303 58.336 317.727 58.7147 317.727 59.472C317.727 59.8347 317.871 60.1227 318.159 60.336C318.447 60.5493 318.847 60.656 319.359 60.656ZM328.725 62.112C328.032 62.112 327.355 62.0213 326.693 61.84C326.032 61.6587 325.504 61.4293 325.109 61.152L325.877 59.632C326.261 59.888 326.72 60.096 327.253 60.256C327.797 60.4053 328.331 60.48 328.853 60.48C330.048 60.48 330.645 60.1653 330.645 59.536C330.645 59.2373 330.491 59.0293 330.181 58.912C329.883 58.7947 329.397 58.6827 328.725 58.576C328.021 58.4693 327.445 58.3467 326.997 58.208C326.56 58.0693 326.176 57.8293 325.845 57.488C325.525 57.136 325.365 56.6507 325.365 56.032C325.365 55.2213 325.701 54.576 326.373 54.096C327.056 53.6053 327.973 53.36 329.125 53.36C329.712 53.36 330.299 53.4293 330.885 53.568C331.472 53.696 331.952 53.872 332.325 54.096L331.557 55.616C330.832 55.1893 330.016 54.976 329.109 54.976C328.523 54.976 328.075 55.0667 327.765 55.248C327.467 55.4187 327.317 55.648 327.317 55.936C327.317 56.256 327.477 56.4853 327.797 56.624C328.128 56.752 328.635 56.8747 329.317 56.992C330 57.0987 330.56 57.2213 330.997 57.36C331.435 57.4987 331.808 57.7333 332.117 58.064C332.437 58.3947 332.597 58.864 332.597 59.472C332.597 60.272 332.251 60.912 331.557 61.392C330.864 61.872 329.92 62.112 328.725 62.112ZM334.32 53.456H336.32V62H334.32V53.456ZM335.328 52.048C334.965 52.048 334.661 51.936 334.416 51.712C334.17 51.4773 334.048 51.1893 334.048 50.848C334.048 50.5067 334.17 50.224 334.416 50C334.661 49.7653 334.965 49.648 335.328 49.648C335.69 49.648 335.994 49.76 336.24 49.984C336.485 50.1973 336.608 50.4693 336.608 50.8C336.608 51.152 336.485 51.4507 336.24 51.696C336.005 51.9307 335.701 52.048 335.328 52.048ZM341.585 62.112C340.891 62.112 340.214 62.0213 339.553 61.84C338.891 61.6587 338.363 61.4293 337.969 61.152L338.737 59.632C339.121 59.888 339.579 60.096 340.113 60.256C340.657 60.4053 341.19 60.48 341.713 60.48C342.907 60.48 343.505 60.1653 343.505 59.536C343.505 59.2373 343.35 59.0293 343.041 58.912C342.742 58.7947 342.257 58.6827 341.585 58.576C340.881 58.4693 340.305 58.3467 339.857 58.208C339.419 58.0693 339.035 57.8293 338.705 57.488C338.385 57.136 338.225 56.6507 338.225 56.032C338.225 55.2213 338.561 54.576 339.233 54.096C339.915 53.6053 340.833 53.36 341.985 53.36C342.571 53.36 343.158 53.4293 343.745 53.568C344.331 53.696 344.811 53.872 345.185 54.096L344.417 55.616C343.691 55.1893 342.875 54.976 341.969 54.976C341.382 54.976 340.934 55.0667 340.625 55.248C340.326 55.4187 340.177 55.648 340.177 55.936C340.177 56.256 340.337 56.4853 340.657 56.624C340.987 56.752 341.494 56.8747 342.177 56.992C342.859 57.0987 343.419 57.2213 343.857 57.36C344.294 57.4987 344.667 57.7333 344.977 58.064C345.297 58.3947 345.457 58.864 345.457 59.472C345.457 60.272 345.11 60.912 344.417 61.392C343.723 61.872 342.779 62.112 341.585 62.112ZM360.351 53.456L357.199 62H355.279L353.071 56.112L350.831 62H348.911L345.775 53.456H347.663L349.919 59.76L352.271 53.456H353.951L356.255 59.792L358.575 53.456H360.351ZM364.724 53.36C365.983 53.36 366.943 53.664 367.604 54.272C368.276 54.8693 368.612 55.776 368.612 56.992V62H366.724V60.96C366.479 61.3333 366.127 61.6213 365.668 61.824C365.22 62.016 364.676 62.112 364.036 62.112C363.396 62.112 362.836 62.0053 362.356 61.792C361.876 61.568 361.503 61.264 361.236 60.88C360.98 60.4853 360.852 60.0427 360.852 59.552C360.852 58.784 361.135 58.1707 361.7 57.712C362.276 57.2427 363.178 57.008 364.404 57.008H366.612V56.88C366.612 56.2827 366.431 55.824 366.068 55.504C365.716 55.184 365.188 55.024 364.484 55.024C364.004 55.024 363.53 55.0987 363.06 55.248C362.602 55.3973 362.212 55.6053 361.892 55.872L361.108 54.416C361.556 54.0747 362.095 53.8133 362.724 53.632C363.354 53.4507 364.02 53.36 364.724 53.36ZM364.452 60.656C364.954 60.656 365.396 60.544 365.78 60.32C366.175 60.0853 366.452 59.7547 366.612 59.328V58.336H364.548C363.396 58.336 362.82 58.7147 362.82 59.472C362.82 59.8347 362.964 60.1227 363.252 60.336C363.54 60.5493 363.94 60.656 364.452 60.656Z" fill="#585858"/>
</svg>
